<?xml version="1.0" standalone="no"?>
<!DOCTYPE svg PUBLIC "-//W3C//DTD SVG 20010904//EN"
 "http://www.w3.org/TR/2001/REC-SVG-20010904/DTD/svg10.dtd">
<svg version="1.0" xmlns="http://www.w3.org/2000/svg"
 width="272.000000pt" height="272.000000pt" viewBox="0 0 272.000000 272.000000"
 preserveAspectRatio="xMidYMid meet">
<metadata>
Created by potrace 1.14, written by Peter Selinger 2001-2017
</metadata>
<g transform="translate(0.000000,272.000000) scale(0.100000,-0.100000)"
fill="#000000" stroke="none">
<path d="M670 1404 l0 -596 28 17 c77 50 236 179 303 245 104 103 144 184 144
291 0 68 -3 79 -29 113 -36 47 -84 68 -157 68 -69 0 -119 -24 -182 -88 l-47
-47 0 296 0 297 -30 0 -30 0 0 -596z m308 10 c108 -76 36 -271 -161 -434 -39
-33 -75 -60 -79 -60 -5 0 -8 87 -8 193 l0 193 48 46 c73 73 151 97 200 62z"/>
<path d="M1551 1675 c-61 -79 -111 -147 -111 -150 0 -3 22 -5 49 -5 l48 0 88
110 c58 72 92 106 99 101 6 -5 47 -55 91 -110 l80 -100 53 -1 53 0 -113 149
-113 150 -57 0 -57 1 -110 -145z"/>
</g>
</svg>
